<?xml version="1.0" encoding="UTF-8" standalone="no"?>
<!DOCTYPE svg PUBLIC "-//W3C//DTD SVG 1.1//EN" "http://www.w3.org/Graphics/SVG/1.1/DTD/svg11.dtd">
<!-- Created with Vectornator (http://vectornator.io/) -->
<svg height="100%" stroke-miterlimit="10" style="fill-rule:nonzero;clip-rule:evenodd;stroke-linecap:round;stroke-linejoin:round;" version="1.1" viewBox="0 0 40 40" width="100%" xml:space="preserve" xmlns="http://www.w3.org/2000/svg" xmlns:vectornator="http://vectornator.io" xmlns:xlink="http://www.w3.org/1999/xlink">
<defs>
<linearGradient gradientTransform="matrix(1 0 0 1.05987 0 -2.39483)" gradientUnits="userSpaceOnUse" id="LinearGradient" x1="0" x2="40" y1="21.1298" y2="21.1298">
<stop offset="0" stop-color="#000000"/>
<stop offset="1" stop-color="#000000"/>
</linearGradient>
</defs>
<g id="Layer-2" vectornator:layerName="Layer 2">
<path d="M0 7.54952e-15L40 7.54952e-15L40 40L0 40L0 7.54952e-15Z" fill="url(#LinearGradient)" fill-rule="nonzero" opacity="1" stroke="none" vectornator:layerName="Rectangle 1"/>
<g fill="#3395ff" opacity="1" stroke="none" vectornator:layerName="Text 1">
<path d="M15.44 10.8L16.4 10.8L16.4 11.76L17.36 11.76L17.36 14.16L16.4 14.16L16.4 14.64L17.36 14.64L17.36 17.04L16.4 17.04L16.4 17.52L17.36 17.52L17.36 18.48L18.32 18.48L18.32 19.44L19.28 19.44L19.28 21.84L18.32 21.84L18.32 22.32L19.28 22.32L19.28 25.68L18.32 25.68L18.32 26.16L19.28 26.16L19.28 28.08L18.32 28.08L18.32 29.52L13.52 29.52L13.52 30L12.56 30L12.56 29.52L11.6 29.52L11.6 30L10.64 30L10.64 29.52L6.8 29.52L6.8 29.04L5.84 29.04L5.84 28.08L4.88 28.08L4.88 27.6L5.84 27.6L5.84 27.12L4.88 27.12L4.88 24.24L5.84 24.24L5.84 23.76L4.88 23.76L4.88 22.8L5.84 22.8L5.84 22.32L8.72 22.32L8.72 26.16L9.68 26.16L9.68 25.68L10.64 25.68L10.64 26.16L11.6 26.16L11.6 25.68L13.52 25.68L13.52 11.28L15.44 11.28L15.44 10.8Z"/>
<path d="M25.28 10.8L26.24 10.8L26.24 11.28L27.2 11.28L27.2 10.8L28.16 10.8L28.16 11.28L32.96 11.28L32.96 10.8L33.92 10.8L33.92 11.28L34.88 11.28L34.88 11.76L35.84 11.76L35.84 12.24L34.88 12.24L34.88 12.72L35.84 12.72L35.84 13.2L34.88 13.2L34.88 14.16L35.84 14.16L35.84 14.64L32 14.64L32 15.12L31.04 15.12L31.04 29.52L30.08 29.52L30.08 30L29.12 30L29.12 29.52L26.24 29.52L26.24 29.04L25.28 29.04L25.28 28.56L26.24 28.56L26.24 28.08L25.28 28.08L25.28 26.16L26.24 26.16L26.24 25.68L25.28 25.68L25.28 24.72L26.24 24.72L26.24 24.24L25.28 24.24L25.28 23.28L26.24 23.28L26.24 22.8L25.28 22.8L25.28 22.32L26.24 22.32L26.24 21.84L25.28 21.84L25.28 20.4L26.24 20.4L26.24 19.92L25.28 19.92L25.28 18.96L26.24 18.96L26.24 18.48L27.2 18.48L27.2 17.04L28.16 17.04L28.16 16.56L27.2 16.56L27.2 16.08L28.16 16.08L28.16 15.6L27.2 15.6L27.2 14.64L26.24 14.64L26.24 15.12L25.28 15.12L25.28 14.64L23.36 14.64L23.36 15.12L21.44 15.12L21.44 14.16L20.48 14.16L20.48 13.68L21.44 13.68L21.44 11.28L25.28 11.28L25.28 10.8Z"/>
</g>
</g>
</svg>
